<?xml version="1.0" encoding="utf-8"?>
<!-- Generator: Adobe Illustrator 27.5.0, SVG Export Plug-In . SVG Version: 6.00 Build 0)  -->
<svg version="1.1" id="Layer_1" xmlns="http://www.w3.org/2000/svg" xmlns:xlink="http://www.w3.org/1999/xlink" x="0px" y="0px"
	 viewBox="0 0 1024 1024" style="enable-background:new 0 0 1024 1024;" xml:space="preserve">
<path d="M145.7,85.3h153c23.6,0,42.7-19.1,42.7-42.7S322.2,0,298.7,0h-256C19.1,0,0,19.1,0,42.7v256c0,23.6,19.1,42.7,42.7,42.7
	s42.7-19.1,42.7-42.7v-153l183.1,183.1c16.4,16.9,43.4,17.4,60.3,1c16.9-16.4,17.4-43.4,1-60.3c-0.3-0.4-0.7-0.7-1-1L145.7,85.3z
	 M938.7,145.7v153c0,23.6,19.1,42.7,42.7,42.7c23.6,0,42.7-19.1,42.7-42.7v-256c0-23.6-19.1-42.7-42.7-42.7h-256
	c-23.6,0-42.7,19.1-42.7,42.7s19.1,42.7,42.7,42.7h153L695.2,268.5c-16.9,16.4-17.4,43.4-1,60.3c16.4,16.9,43.4,17.4,60.3,1
	c0.4-0.3,0.7-0.7,1-1L938.7,145.7z M145.7,938.7h153c23.6,0,42.7,19.1,42.7,42.7c0,23.6-19.1,42.7-42.7,42.7h-256
	C19.1,1024,0,1004.9,0,981.3v-256c0-23.6,19.1-42.7,42.7-42.7s42.7,19.1,42.7,42.7v153l183.1-183.1c16.4-16.9,43.4-17.4,60.3-1
	c16.9,16.4,17.4,43.4,1,60.3c-0.3,0.4-0.7,0.7-1,1L145.7,938.7z M938.7,878.3v-153c0-23.6,19.1-42.7,42.7-42.7
	c23.6,0,42.7,19.1,42.7,42.7v256c0,23.6-19.1,42.7-42.7,42.7h-256c-23.6,0-42.7-19.1-42.7-42.7c0-23.6,19.1-42.7,42.7-42.7h153
	L695.2,755.5c-16.9-16.4-17.4-43.4-1-60.3c16.4-16.9,43.4-17.4,60.3-1c0.4,0.3,0.7,0.7,1,1L938.7,878.3z"/>
</svg>
